HIERARCHY
ROOT Hips
{
	OFFSET 0.000000 0.000000 0.000000 
	CHANNELS 6 Xposition Yposition Zposition Yrotation Zrotation Xrotation 
	JOINT Lumbar
	{
		OFFSET 0.000000 0.000000 0.000000 
		CHANNELS 3 Zrotation Xrotation Yrotation
		JOINT Neck
		{
			OFFSET 0.000000 0.445665 0.000000 
			CHANNELS 3 Zrotation Xrotation Yrotation
			End Site
			{
				OFFSET 0.000000 0.227535 0.000000 
			}
		}
		JOINT RightShoulder
		{
			OFFSET 0.019635 0.377685 0.194865 
			CHANNELS 3 Zrotation Xrotation Yrotation
			JOINT RightElbow
			{
				OFFSET 0.000000 -0.243375 0.000000 
				CHANNELS 2 Zrotation Yrotation
				JOINT RightWrist
				{
					OFFSET 0.000000 -0.264825 0.000000 
					CHANNELS 2 Zrotation Xrotation
					End Site
					{
						OFFSET 0.006600 -0.176220 0.000990 
					}
				}
			}
		}
		JOINT LeftShoulder
		{
			OFFSET 0.019635 0.377685 -0.194865 
			CHANNELS 3 Zrotation Xrotation Yrotation
			JOINT LeftElbow
			{
				OFFSET 0.000000 -0.243375 0.000000 
				CHANNELS 2 Zrotation Yrotation
				JOINT LeftWrist
				{
					OFFSET 0.000000 -0.264825 0.000000 
					CHANNELS 2 Zrotation Xrotation
					End Site
					{
						OFFSET 0.006600 -0.176220 -0.000990 
					}
				}
			}
		}
	}
	JOINT RightHip
	{
		OFFSET 0.052140 -0.069960 0.075570 
		CHANNELS 3 Zrotation Xrotation Yrotation
		JOINT RightKnee
		{
			OFFSET 0.000000 -0.402270 0.000000 
			CHANNELS 1 Zrotation
			JOINT RightAnkle
			{
				OFFSET 0.000000 -0.404085 0.000000 
				CHANNELS 3 Zrotation Xrotation Yrotation
				End Site
				{
					OFFSET 0.204105 -0.089430 0.008415 
				}
			}
		}
	}
	JOINT LeftHip
	{
		OFFSET 0.052140 -0.069960 -0.075570 
		CHANNELS 3 Zrotation Xrotation Yrotation
		JOINT LeftKnee
		{
			OFFSET 0.000000 -0.402270 0.000000 
			CHANNELS 1 Zrotation
			JOINT LeftAnkle
			{
				OFFSET 0.000000 -0.404085 0.000000 
				CHANNELS 3 Zrotation Xrotation Yrotation
				End Site
				{
					OFFSET 0.204105 -0.089430 -0.008415 
				}
			}
		}
	}
}
MOTION
Frames: 22
Frame Time: 0.02
0.00717 -0.00056 0.0002 -179.87559 -27.81088 -0.10911 39.90487 -0.32184 -8.13843 -10.89709 4.31966 -0.39065 -11.17877 -7.13752 -27.4018 20.28531 121.77655 13.22214 5.5371 -21.8912 8.49307 -5.58202 29.85175 -121.22996 21.03146 -2.84703 33.24449 -2.17913 -3.57607 -21.32109 -6.58543 -4.30986 -2.90582 34.98854 3.10383 1.80673 -25.42055 -6.75113 4.11288 2.81244
0.00612 -0.00047 4e-05 -179.81837 -27.72343 -0.14077 40.04494 -0.33416 -8.26352 -11.0686 4.32002 -0.39136 -11.68652 -7.00919 -27.55703 20.32018 122.07863 13.39152 5.55357 -22.11904 8.19207 -4.47516 29.9012 -122.925 21.53961 -3.19989 32.9843 -2.22915 -4.08699 -21.30261 -6.52265 -4.28198 -2.88789 34.80033 3.16691 1.85123 -25.38198 -6.7505 4.10771 2.80819
0.00507 -0.00037 -0.00013 -179.76123 -27.63611 -0.17233 40.1848 -0.3465 -8.38825 -11.23988 4.3204 -0.39207 -12.19392 -6.88171 -27.70878 20.35548 122.37329 13.55901 5.5689 -22.34637 7.89239 -3.37303 29.95065 -124.6076 22.04404 -3.55044 32.72454 -2.27895 -4.59619 -21.28417 -6.46006 -4.25424 -2.87004 34.61235 3.22984 1.89569 -25.34347 -6.74986 4.10254 2.80393
0.00402 -0.00028 -0.0003 -179.70418 -27.54891 -0.20389 40.32448 -0.3588 -8.51297 -11.41089 4.32076 -0.39278 -12.7003 -6.75386 -27.86298 20.3903 122.67312 13.72758 5.5851 -22.57354 7.59239 -2.26984 29.99998 -126.296 22.55019 -3.90198 32.4651 -2.32881 -5.10553 -21.26574 -6.39747 -4.22645 -2.85218 34.42467 3.29273 1.94007 -25.305 -6.74924 4.09738 2.79969
0.00298 -0.00019 -0.00046 -179.64708 -27.46161 -0.23558 40.46429 -0.37105 -8.63802 -11.58205 4.32108 -0.39349 -13.2066 -6.62494 -28.02194 20.42458 122.98352 13.89874 5.60297 -22.80114 7.29087 -1.1613 30.04928 -128.00021 23.06106 -4.25639 32.20534 -2.37889 -5.61663 -21.24728 -6.33471 -4.19851 -2.83421 34.23685 3.35577 1.98443 -25.26649 -6.74864 4.09223 2.79544
0.00192 -9e-05 -0.00063 -179.58986 -27.37425 -0.26685 40.60423 -0.38357 -8.76206 -11.75358 4.32161 -0.39419 -13.71629 -6.50046 -28.15865 20.46204 123.24555 14.05864 5.61303 -23.02792 6.99504 -0.07263 30.09905 -129.63775 23.5521 -4.5989 31.94558 -2.4281 -6.12179 -21.22888 -6.27249 -4.17119 -2.81662 34.04854 3.41845 2.02909 -25.22802 -6.74792 4.08699 2.79116
0.00088 0 -0.0008 -179.53297 -27.28717 -0.29892 40.74376 -0.39554 -8.88803 -11.92406 4.32169 -0.3949 -14.21852 -6.36733 -28.33949 20.49288 123.60258 14.24044 5.63848 -23.25607 6.68822 1.05439 30.14775 -131.40563 24.08185 -4.96465 31.6862 -2.47903 -6.63836 -21.21037 -6.20923 -4.14263 -2.7983 33.8615 3.48178 2.07312 -25.18947 -6.74744 4.08195 2.78697
-0.00017 9e-05 -0.00096 -179.47571 -27.19971 -0.33025 40.88365 -0.40804 -9.01215 -12.09572 4.32225 -0.39561 -14.72777 -6.24193 -28.48054 20.53013 123.87574 14.40311 5.65029 -23.48302 6.39132 2.14685 30.19756 -133.05696 24.57709 -5.30956 31.4263 -2.52835 -7.14439 -21.19201 -6.14695 -4.11524 -2.78067 33.67313 3.54451 2.11773 -25.15104 -6.74673 4.07672 2.78269
-0.00124 0.00018 -0.00113 -179.41821 -27.11219 -0.36074 41.02416 -0.4211 -9.13437 -12.26813 4.32316 -0.39632 -15.24547 -6.12697 -28.56887 20.57415 124.03047 14.538 5.64304 -23.70836 6.10733 3.1941 30.24831 -134.55074 25.02524 -5.62655 31.16627 -2.57579 -7.6378 -21.1736 -6.08578 -4.08918 -2.76382 33.48365 3.60652 2.16309 -25.11256 -6.74579 4.07128 2.77831
-0.00221 0.00029 -0.00129 -179.36273 -27.02626 -0.39623 41.16165 -0.43067 -9.26862 -12.43416 4.32131 -0.39704 -15.71422 -5.95491 -28.94819 20.57598 124.81866 14.8195 5.73826 -23.94256 5.75144 4.49256 30.29239 -136.90558 25.72958 -6.09682 30.9085 -2.6343 -8.20461 -21.15478 -6.01793 -4.05518 -2.74226 33.3021 3.67271 2.20425 -25.07377 -6.74629 4.0671 2.77453
-0.0034 0.00036 -0.00147 -179.3026 -26.9362 -0.42105 41.30513 -0.44778 -9.37678 -12.61492 4.32579 -0.39772 -16.28626 -5.90141 -28.7218 20.66883 124.30168 14.80028 5.622 -24.15828 5.54569 5.26677 30.35134 -137.47346 25.90304 -6.24853 30.64504 -2.6693 -8.61603 -21.13727 -5.96439 -4.03809 -2.73076 33.10286 3.73008 2.25419 -25.03601 -6.74371 4.06024 2.76946
-0.00512 0.00029 -0.00168 -179.23287 -26.84071 -0.41724 41.46883 -0.48414 -9.41789 -12.82661 4.34382 -0.39831 -17.14124 -6.19212 -26.75819 20.99355 119.91462 13.87654 4.88202 -24.321 5.76896 4.54017 30.44422 -132.84174 24.52553 -5.47701 30.37307 -2.64066 -8.60135 -21.1195 -5.94899 -4.06659 -2.74612 32.86187 3.76296 2.32896 -24.99783 -6.73292 4.04623 2.7609
-0.00706 0.00018 -0.00191 -179.15802 -26.7399 -0.40259 41.63804 -0.52825 -9.43166 -13.0551 4.36917 -0.39887 -18.09742 -6.5982 -24.20715 21.41006 114.27472 12.66548 3.93876 -24.46543 6.13999 3.29834 30.55277 -126.46963 22.63248 -4.39449 30.09403 -2.58836 -8.43066 -21.10359 -5.94827 -4.1122 -2.77169 32.6016 3.78696 2.41235 -24.96116 -6.71897 4.02955 2.75105
-0.00893 8e-05 -0.00214 -179.08328 -26.63773 -0.3925 41.80206 -0.56986 -9.45536 -13.28183 4.39328 -0.39945 -19.01094 -6.93945 -21.96515 21.8 109.39105 11.63775 3.11553 -24.61996 6.43206 2.3333 30.65931 -121.08825 21.03674 -3.48662 29.81366 -2.54619 -8.33104 -21.08954 -5.94149 -4.15055 -2.79307 32.346 3.81532 2.49139 -24.92606 -6.7063 4.01393 2.74172
-0.01067 1e-05 -0.00236 -179.01734 -26.55175 -0.38395 41.97672 -0.60752 -9.49079 -13.48284 4.40748 -0.40001 -19.92138 -7.33409 -19.51597 22.13822 103.69823 10.38693 2.1709 -24.7676 6.77361 1.18853 30.74648 -114.86329 19.17352 -2.43839 29.55262 -2.50614 -8.23002 -21.06473 -5.93181 -4.18682 -2.81263 32.10859 3.84259 2.57248 -24.88193 -6.69433 3.99879 2.73255
-0.01274 -0.00013 -0.00259 -178.93252 -26.43049 -0.36958 42.13144 -0.65483 -9.49374 -13.7426 4.44543 -0.4006 -20.84871 -7.64385 -17.39462 22.59081 99.41597 9.53244 1.4363 -24.92439 7.04795 0.29434 30.87498 -109.97854 17.74572 -1.60764 29.24942 -2.45662 -8.09541 -21.06195 -5.93209 -4.23138 -2.83831 31.82754 3.86966 2.65108 -24.85635 -6.68009 3.98221 2.72286
-0.01558 -0.0004 -0.0029 -178.79215 -26.21792 -0.34245 42.2206 -0.72975 -9.42726 -14.14678 4.53566 -0.4012 -21.90906 -7.70237 -16.01116 23.46797 99.1373 9.84208 1.28449 -25.11805 7.09307 0.23354 31.13947 -109.26472 17.64336 -1.46495 28.837 -2.38232 -7.90309 -21.12727 -5.95216 -4.29535 -2.87899 31.44417 3.90138 2.7223 -24.88707 -6.66099 3.9608 2.71129
-0.01873 -0.00072 -0.00323 -178.63458 -25.97068 -0.30982 42.29042 -0.81311 -9.32662 -14.60976 4.65183 -0.40185 -22.95922 -7.67143 -15.02946 24.43396 100.34869 10.55793 1.3585 -25.31997 7.06693 0.43938 31.44174 -109.95176 17.99695 -1.54993 28.38382 -2.30033 -7.68339 -21.2137 -5.98234 -4.36676 -2.92526 31.01737 3.93246 2.78991 -24.93557 -6.63971 3.93839 2.69944
-0.0218 -0.00103 -0.00354 -178.48698 -25.73418 -0.27913 42.37609 -0.89135 -9.23258 -15.05768 4.76346 -0.40247 -23.94488 -7.67125 -14.07657 25.27142 101.021 11.09181 1.3617 -25.51374 7.07806 0.51404 31.70793 -109.96932 18.14492 -1.52317 27.94261 -2.22451 -7.47777 -21.28483 -6.01078 -4.43448 -2.96865 30.59864 3.96209 2.85876 -24.97213 -6.61882 3.91731 2.68815
-0.02469 -0.00133 -0.0039 -178.32699 -25.51232 -0.24998 42.43538 -0.97724 -9.17479 -15.46633 4.84407 -0.40303 -25.23797 -7.70817 -12.23829 26.47846 101.10813 11.61593 1.22919 -25.72644 7.07316 0.61553 32.04827 -110.06588 18.27137 -1.5201 27.51878 -2.13576 -7.25808 -21.3783 -6.02836 -4.50477 -3.01419 30.21889 3.99956 2.93166 -25.02431 -6.5998 3.89207 2.67477
-0.02796 -0.00164 -0.00416 -178.19273 -25.25978 -0.21702 42.54091 -1.04667 -9.03437 -15.95874 4.99618 -0.40382 -25.87189 -7.65597 -12.31261 26.94293 102.73214 12.24632 1.42848 -25.90064 7.08354 0.72792 32.25078 -110.35186 18.55366 -1.52631 27.06174 -2.07345 -7.06535 -21.43253 -6.06993 -4.57044 -3.05598 29.75993 4.01968 2.9926 -25.04907 -6.57709 3.87577 2.66597
-0.03266 -0.00205 -0.00425 -178.09995 -24.86286 -0.17005 42.81207 -1.08964 -8.66916 -16.76841 5.33232 -0.40441 -24.81492 -7.28393 -17.87238 25.2719 108.70282 13.19839 2.5524 -25.97641 7.14714 0.83544 31.99485 -110.84449 19.19368 -1.50028 26.41729 -2.07744 -6.93513 -21.35607 -6.18247 -4.62852 -3.09 28.99022 4.00078 3.04474 -24.98587 -6.53881 3.88011 2.6673
